<svg version="1.1" xmlns="http://www.w3.org/2000/svg" xmlns:xlink="http://www.w3.org/1999/xlink" x="0px" y="0px" width="198px" height="113px" viewBox="0 0 198 113" 
		xml:space="preserve">
<style type="text/css">
					
					.contour0{	
						fill:none;
						stroke:#000000;
						stroke-miterlimit:10;
						stroke-opacity:0.5;
						stroke-width:1px; 
						fill-opacity:[object Object];
						transform-origin:center center;
						transform:translate(-30px, -60px) rotate(43.46987232860131deg) scale(0.3);
						
					}

					</style>
<style type="text/css">
					
					.contour1{	
						fill:none;
						stroke:#000000;
						stroke-miterlimit:10;
						stroke-opacity:0.23;
						stroke-width:7px; 
						fill-opacity:0.23;
						transform:translate(49.5px, 56.5px);
					}

					</style>
<style type="text/css">
					
					.contour2{	
						fill:black;
						stroke:#000000;
						stroke-miterlimit:10;
						stroke-opacity:0.16;
						stroke-width:1px; 
						fill-opacity:0.16;
						transform:translate(49.5px, 56.5px);
					}

					</style>
<style type="text/css">
					
					.contour3{	
						fill:none;
						stroke:#000000;
						stroke-miterlimit:10;
						stroke-opacity:1;
						stroke-width:1px; 
						fill-opacity:[object Object];
						transform-origin:center center;
						transform:translate(-50px, -130px) rotate(26.454210861373085deg) scale(0.28);
						
					}

					</style>
<style type="text/css">
					
					.contour4{	
						fill:none;
						stroke:#000000;
						stroke-miterlimit:10;
						stroke-opacity:0.5;
						stroke-width:1px; 
						fill-opacity:[object Object];
						transform-origin:center center;
						transform:translate(-30px, -60px) rotate(322.4972591414185deg) scale(0.15);
						
					}

					</style>
<style type="text/css">
				
				.mytext{	
					transform:translate(100px, 35px);
				}

			</style>
<path class="contour0" d="M14.7,23.9c57.5-7.6,134.7-23.1,109.6,104.4C113.2,184.5,57,247.6,35.2,272.6c-14.2,16.3-22.9,22.9-21.7,24.4c0,0,159.4-81.9,159.7-215.1S14.7,23.9,14.7,23.9z" /><circle class="contour1" cx="1.879501835973322" cy="1.170555198786234" r="27"/>
<circle class="contour2" cx="-3.2041005592701577" cy="-5.106087369990098" r="40"/>
<polygon class="contour3" points="100.578,55.396 0.553,300.184 100.578,242.099 200.579,300.184"/><path class="contour4" d="M14.7,23.9c57.5-7.6,134.7-23.1,109.6,104.4C113.2,184.5,57,247.6,35.2,272.6c-14.2,16.3-22.9,22.9-21.7,24.4c0,0,159.4-81.9,159.7-215.1S14.7,23.9,14.7,23.9z" /><defs><style type="text/css">@import url('https://fonts.googleapis.com/css?family=Noto+Serif&amp;display=swap');</style></defs><defs><style type="text/css">@import url('https://fonts.googleapis.com/css?family=Rubik+Mono+One&amp;display=swap');</style></defs><text class="mytext" x="-10" y="20" font-family="Rubik Mono One" font-size="30px" fill="black"  text-anchor="start">CA</text>
<text class="mytext" x="-10" y="25" font-family="Noto Serif" font-size="7px" fill="black" text-anchor="start" ><tspan x="-10" dy="1.2em">Corps</tspan><tspan x="-10" dy="1.2em">agréé</tspan></text>
</svg>