<svg version="1.1" xmlns="http://www.w3.org/2000/svg" xmlns:xlink="http://www.w3.org/1999/xlink" x="0px" y="0px"
	 width="141.73px" height="141.73px" viewBox="0 0 141.73 141.73"
	 xml:space="preserve">
<style type="text/css">
	.contour{
		fill:none;
		stroke:#000000;
		stroke-miterlimit:10;
	}
</style>

<defs>  
    <path id="text-path" class="st0" d="M0.72,38.56c-0.75-2.3,0.55-4.73,1.85-6.78C8.33,22.66,15,13.84,23.91,7.75S44.3-1.4,54.62,1.77
	c12.47,3.84,20.54,15.45,29.85,24.59c5.58,5.48,11.87,10.24,18.66,14.11c9.68,5.53,21.75,9.22,31.84,4.47
	c2.18-1.03,4.21-2.44,5.76-4.3c2.69-3.23,3.7-7.51,4.51-11.64c1.29-6.66,2.35-13.66,6.27-19.2"/>
  </defs>


<text>  
    <textPath xlink:href="#text-path" >SVG text on a linear path</textPath>  
</text>


<circle class="contour" cx="65.84" cy="65.84" r="54.56"/>
<circle class="contour" cx="65.84" cy="65.84" r="65.34"/>
</svg>